<?xml version="1.0" encoding="UTF-8" standalone="no"?>
<!-- Created with Inkscape (http://www.inkscape.org/) -->

<svg
   xmlns:dc="http://purl.org/dc/elements/1.1/"
   xmlns:cc="http://creativecommons.org/ns#"
   xmlns:rdf="http://www.w3.org/1999/02/22-rdf-syntax-ns#"
   xmlns:svg="http://www.w3.org/2000/svg"
   xmlns="http://www.w3.org/2000/svg"
   xmlns:xlink="http://www.w3.org/1999/xlink"
   xmlns:sodipodi="http://sodipodi.sourceforge.net/DTD/sodipodi-0.dtd"
   xmlns:inkscape="http://www.inkscape.org/namespaces/inkscape"
   width="137.55949mm"
   height="137.55949mm"
   viewBox="0 0 137.55949 137.55949"
   version="1.1"
   id="svg8"
   inkscape:version="0.92.2 (5c3e80d, 2017-08-06)"
   sodipodi:docname="icon.svg">
  <defs
     id="defs2">
    <linearGradient
       id="linearGradient882"
       inkscape:collect="always">
      <stop
         id="stop878"
         offset="0"
         style="stop-color:#000000;stop-opacity:1;" />
      <stop
         id="stop880"
         offset="1"
         style="stop-color:#ff5700;stop-opacity:1" />
    </linearGradient>
    <linearGradient
       id="linearGradient876"
       inkscape:collect="always">
      <stop
         id="stop872"
         offset="0"
         style="stop-color:#000000;stop-opacity:1;" />
      <stop
         id="stop874"
         offset="1"
         style="stop-color:#ff5700;stop-opacity:1" />
    </linearGradient>
    <linearGradient
       id="linearGradient870"
       inkscape:collect="always">
      <stop
         id="stop866"
         offset="0"
         style="stop-color:#000000;stop-opacity:1;" />
      <stop
         id="stop868"
         offset="1"
         style="stop-color:#ff5700;stop-opacity:1" />
    </linearGradient>
    <linearGradient
       id="linearGradient864"
       inkscape:collect="always">
      <stop
         id="stop860"
         offset="0"
         style="stop-color:#000000;stop-opacity:1;" />
      <stop
         id="stop862"
         offset="1"
         style="stop-color:#ff5700;stop-opacity:1" />
    </linearGradient>
    <linearGradient
       inkscape:collect="always"
       id="linearGradient848">
      <stop
         style="stop-color:#000000;stop-opacity:1;"
         offset="0"
         id="stop844" />
      <stop
         style="stop-color:#ff5700;stop-opacity:1"
         offset="1"
         id="stop846" />
    </linearGradient>
    <linearGradient
       inkscape:collect="always"
       xlink:href="#linearGradient848"
       id="linearGradient850"
       x1="32.252861"
       y1="148.09236"
       x2="164.38554"
       y2="149.74017"
       gradientUnits="userSpaceOnUse"
       gradientTransform="translate(6.2424887,-10.985311)" />
    <linearGradient
       inkscape:collect="always"
       xlink:href="#linearGradient882"
       id="linearGradient852"
       x1="33.141422"
       y1="144.12183"
       x2="168.91434"
       y2="145.72545"
       gradientUnits="userSpaceOnUse"
       gradientTransform="translate(4.8108515,-11.759859)" />
    <linearGradient
       inkscape:collect="always"
       xlink:href="#linearGradient876"
       id="linearGradient854"
       x1="33.141422"
       y1="144.12183"
       x2="168.91434"
       y2="145.72545"
       gradientUnits="userSpaceOnUse"
       gradientTransform="translate(4.8108515,-11.759859)" />
    <linearGradient
       inkscape:collect="always"
       xlink:href="#linearGradient870"
       id="linearGradient856"
       x1="33.141422"
       y1="144.12183"
       x2="168.91434"
       y2="145.72545"
       gradientUnits="userSpaceOnUse"
       gradientTransform="translate(4.8108515,-11.759859)" />
    <linearGradient
       inkscape:collect="always"
       xlink:href="#linearGradient864"
       id="linearGradient858"
       x1="33.141422"
       y1="144.12183"
       x2="168.91434"
       y2="145.72545"
       gradientUnits="userSpaceOnUse"
       gradientTransform="translate(4.8108515,-11.759859)" />
  </defs>
  <sodipodi:namedview
     id="base"
     pagecolor="#ffffff"
     bordercolor="#666666"
     borderopacity="1.0"
     inkscape:pageopacity="0.0"
     inkscape:pageshadow="2"
     inkscape:zoom="0.49497475"
     inkscape:cx="-191.12611"
     inkscape:cy="177.57917"
     inkscape:document-units="mm"
     inkscape:current-layer="layer1"
     showgrid="false"
     fit-margin-top="0"
     fit-margin-left="0"
     fit-margin-right="0"
     fit-margin-bottom="0"
     inkscape:window-width="1920"
     inkscape:window-height="1017"
     inkscape:window-x="1912"
     inkscape:window-y="-8"
     inkscape:window-maximized="1" />
  <metadata
     id="metadata5">
    <rdf:RDF>
      <cc:Work
         rdf:about="">
        <dc:format>image/svg+xml</dc:format>
        <dc:type
           rdf:resource="http://purl.org/dc/dcmitype/StillImage" />
        <dc:title></dc:title>
      </cc:Work>
    </rdf:RDF>
  </metadata>
  <g
     inkscape:label="Layer 1"
     inkscape:groupmode="layer"
     id="layer1"
     transform="translate(-36.134604,-61.994356)">
    <path
       style="fill:url(#linearGradient858);fill-opacity:1;stroke:#000000;stroke-width:0.26458332px;stroke-linecap:butt;stroke-linejoin:miter;stroke-opacity:1"
       d="M 73.079103,184.71883 C 38.68327,149.56704 51.534461,115.17121 51.534461,115.17121 l -15.119047,-2.64584 v 0 L 69.677319,80.775366 82.52851,121.21883 67.409462,118.19502 c 0,0 -6.803571,-1.13393 5.669641,66.52381 z"
       id="path815"
       inkscape:connector-curvature="0" />
    <path
       style="fill:url(#linearGradient856);fill-opacity:1;stroke:#ff99ce;stroke-width:0.37797621;stroke-opacity:0"
       d="M 70.05408,180.94309 C 65.547331,176.01832 59.846748,167.75557 56.917321,161.90193 49.94708,147.97384 47.74426,131.70366 51.019574,118.3408 c 0.424526,-1.73202 0.691811,-3.22917 0.593966,-3.32702 -0.09785,-0.0978 -3.293796,-0.72181 -7.10211,-1.3866 -3.808315,-0.66478 -6.906956,-1.35468 -6.885866,-1.53311 0.07072,-0.5984 31.651662,-30.46876 31.918296,-30.18945 0.227189,0.237988 12.421311,38.26824 12.421311,38.73879 0,0.0956 -3.263527,-0.48277 -7.252279,-1.28523 -3.988753,-0.80247 -7.386169,-1.45904 -7.549817,-1.45904 -0.163647,0 -0.599564,0.55279 -0.968703,1.22842 -1.036224,1.89659 -0.914871,15.48122 0.222007,24.85194 1.177819,9.7082 2.79968,20.59388 4.560194,30.60733 0.821523,4.67265 1.439831,8.54957 1.374021,8.61538 -0.06581,0.0658 -1.09924,-0.95079 -2.296514,-2.25912 z"
       id="path817"
       inkscape:connector-curvature="0" />
    <path
       style="fill:url(#linearGradient854);fill-opacity:1;stroke:#ff99ce;stroke-width:0.37797621;stroke-opacity:0"
       d="m 69.94028,180.45921 c -7.153998,-7.82761 -13.601766,-18.67877 -16.693417,-28.09389 -2.580034,-7.85708 -3.212894,-11.96048 -3.217056,-20.85904 -0.0031,-6.73492 0.114443,-8.30616 0.898964,-12.0116 0.496422,-2.34469 0.797328,-4.36834 0.668677,-4.49699 -0.128651,-0.12866 -3.149891,-0.79699 -6.713863,-1.4852 -3.563975,-0.6882 -6.586307,-1.36034 -6.716295,-1.49364 -0.129989,-0.1333 1.209413,-1.61516 2.976452,-3.29302 1.767041,-1.67787 6.446041,-6.12583 10.397783,-9.884364 12.489257,-11.87864 17.653191,-16.543185 17.955768,-16.219333 0.161457,0.17281 2.254605,6.437423 4.651436,13.921353 6.560023,20.483174 7.542326,23.646094 7.389529,23.793554 -0.07703,0.0743 -3.116614,-0.4423 -6.754635,-1.14808 -3.638021,-0.70577 -6.969982,-1.28471 -7.404359,-1.28653 -1.376156,-0.006 -1.775899,1.62092 -1.961005,7.97984 -0.296177,10.17451 0.951858,21.89391 4.806622,45.1355 1.030957,6.21597 1.820527,11.3557 1.754598,11.42162 -0.06593,0.0659 -0.983567,-0.82515 -2.039199,-1.98018 z"
       id="path819"
       inkscape:connector-curvature="0" />
    <path
       style="fill:#000000;fill-opacity:1;stroke:#ff99ce;stroke-width:0.09449405;stroke-opacity:0"
       d=""
       id="path821"
       inkscape:connector-curvature="0" />
    <path
       style="opacity:1;fill:#000000;fill-opacity:1;stroke:#000000;stroke-width:0.033;stroke-miterlimit:4;stroke-dasharray:none;stroke-opacity:1"
       d=""
       id="path823"
       inkscape:connector-curvature="0" />
    <path
       style="fill:url(#linearGradient852);fill-opacity:1;stroke:#ff99ce;stroke-width:0.37797621;stroke-opacity:0"
       d="m 141.72357,85.49644 c 7.154,7.827616 13.60176,18.67878 16.69342,28.0939 2.58003,7.85708 3.21289,11.96047 3.21705,20.85904 0.003,6.73492 -0.11444,8.30616 -0.89896,12.0116 -0.49642,2.34469 -0.79733,4.36834 -0.66868,4.49699 0.12865,0.12866 3.14989,0.79699 6.71386,1.4852 3.56398,0.6882 6.58631,1.36034 6.7163,1.49364 0.12999,0.1333 -1.20941,1.61517 -2.97645,3.29304 -1.76704,1.67786 -6.44604,6.12582 -10.39779,9.88435 -12.48925,11.87864 -17.65318,16.54318 -17.95576,16.21933 -0.16146,-0.17281 -2.2546,-6.43742 -4.65144,-13.92134 -6.56002,-20.48319 -7.54232,-23.64611 -7.38953,-23.79357 0.077,-0.0743 3.11662,0.4423 6.75464,1.14808 3.63802,0.70577 6.96998,1.28471 7.40436,1.28652 1.37615,0.006 1.77589,-1.62091 1.961,-7.97983 0.29618,-10.17451 -0.95186,-21.89391 -4.80662,-45.135504 -1.03095,-6.21597 -1.82052,-11.355706 -1.7546,-11.421626 0.0659,-0.0659 0.98357,0.82515 2.0392,1.98018 z"
       id="path819-1"
       inkscape:connector-curvature="0" />
    <text
       xml:space="preserve"
       style="font-style:normal;font-variant:normal;font-weight:normal;font-stretch:normal;font-size:15.35495853px;line-height:1.25;font-family:'Lucida Console';-inkscape-font-specification:'Lucida Console';letter-spacing:0px;word-spacing:0px;fill:url(#linearGradient850);fill-opacity:1;stroke:none;stroke-width:0.38387397"
       x="83.370865"
       y="162.92253"
       id="text842"
       transform="scale(1.0275499,0.97318875)"><tspan
         sodipodi:role="line"
         id="tspan840"
         x="83.370865"
         y="162.92253"
         style="font-style:normal;font-variant:normal;font-weight:normal;font-stretch:normal;font-size:73.70380402px;font-family:'Lucida Console';-inkscape-font-specification:'Lucida Console';fill:url(#linearGradient850);fill-opacity:1;stroke-width:0.38387397">?</tspan></text>
  </g>
</svg>
